<?xml version="1.0" standalone="no"?>
<!DOCTYPE svg PUBLIC "-//W3C//DTD SVG 20010904//EN"
 "http://www.w3.org/TR/2001/REC-SVG-20010904/DTD/svg10.dtd">
<svg version="1.0" xmlns="http://www.w3.org/2000/svg"
 width="320.000000pt" height="320.000000pt" viewBox="0 0 320.000000 320.000000"
 preserveAspectRatio="xMidYMid meet">
<metadata>
Created by potrace 1.11, written by Peter Selinger 2001-2013
</metadata>
<g transform="translate(0.000000,320.000000) scale(0.100000,-0.100000)"
fill="#000000" stroke="none">
<path d="M1405 2950 c-463 -72 -851 -350 -1053 -755 -92 -186 -135 -373 -135
-590 0 -169 20 -288 74 -442 140 -398 459 -707 869 -843 205 -67 458 -87 665
-52 307 53 550 177 766 391 157 156 258 316 324 514 56 168 69 253 70 432 0
180 -13 261 -71 435 -65 194 -160 346 -319 506 -196 199 -403 314 -685 381
-85 20 -137 25 -275 28 -93 2 -197 0 -230 -5z m391 -245 c568 -98 979 -593
951 -1145 -16 -299 -135 -555 -354 -760 -453 -423 -1169 -412 -1609 25 -167
166 -275 370 -315 595 -18 101 -15 307 5 397 101 460 458 803 922 887 106 19
291 19 400 1z"/>
<path d="M1430 2436 c-158 -34 -300 -108 -417 -220 -121 -114 -201 -249 -244
-411 -17 -62 -22 -109 -22 -210 0 -161 21 -246 95 -395 46 -93 63 -116 153
-205 172 -172 328 -241 566 -252 189 -9 344 33 504 138 416 271 509 854 200
1244 -119 150 -270 248 -461 301 -81 22 -290 27 -374 10z m225 -486 c30 -101
55 -185 55 -186 0 -2 85 -5 190 -6 l190 -3 -150 -118 c-83 -65 -150 -123 -150
-128 0 -6 25 -92 55 -192 30 -99 53 -182 51 -184 -1 -2 -68 49 -149 112 -80
63 -148 115 -152 115 -4 0 -72 -52 -152 -115 -81 -63 -148 -114 -149 -112 -2
2 21 85 51 184 30 100 55 186 55 192 0 5 -67 63 -150 128 l-150 118 190 3
c105 1 190 4 190 6 0 1 25 85 55 186 30 101 55 186 55 188 0 21 17 -30 65
-188z"/>
</g>
</svg>
